<?xml version="1.0" encoding="UTF-8" standalone="no"?>
<svg xmlns="http://www.w3.org/2000/svg" xmlns:xlink="http://www.w3.org/1999/xlink" width="40px" height="40px" viewBox="0 0 40 40" version="1.1"><title>Really Interested</title><desc>Your unique vanillicon is crafted with love by the team at vanillaforums.com.</desc><defs/><g id="vanillicon" stroke="none" stroke-width="1" fill="none" fill-rule="evenodd"><rect id="background" fill="#ECBE1E" x="-2" y="-2" width="44" height="44"/><g id="avatar" transform="rotate(-12, 20, 20) translate(3.000000, 3.000000)"><g id="body" transform="translate(1.000000, 1.000000)" fill="#9CEEFC"><circle id="b" cx="16" cy="16" r="16"/><path d="M24.5,1.5 L26.5,8.5 L31.5,3 L24.5,1.5 Z" id="r" transform="translate(28.000000, 5.000000) scale(-1, 1) translate(-28.000000, -5.000000) "/><path d="M0.5,1.5 L2.5,8.5 L7.5,3 L0.5,1.5 Z" id="l"/></g><g id="eyes" transform="translate(7.000000, 9.000000)" fill="#1B215C"><circle id="left_eye" cx="4" cy="6" r="2"/><circle id="right_eye" cx="16" cy="6" r="2"/><path d="M16.8428191,1.76798044 C14.6776721,1.17846758 12.8819072,2.46946039 13.0060763,2.05828526 C13.3785839,0.824759866 15.4262516,-0.39764642 17.3394959,0.123279917 C19.2527402,0.644206253 20.2774306,2.80929763 19.9345468,3.9447264 C19.8103777,4.35590152 19.0079662,2.35749329 16.8428191,1.76798044 L16.8428191,1.76798044 Z" id="right_brow"/><path d="M3.84281914,1.76798044 C1.67767211,1.17846758 -0.118092842,2.46946039 0.00607634196,2.05828526 C0.378583894,0.824759866 2.42625158,-0.39764642 4.33949588,0.123279917 C6.25274018,0.644206253 7.27743058,2.80929763 6.93454684,3.9447264 C6.81037766,4.35590152 6.00796618,2.35749329 3.84281914,1.76798044 L3.84281914,1.76798044 Z" id="left_brow" transform="translate(3.500000, 2.000000) scale(-1, 1) translate(-3.500000, -2.000000) "/></g><g id="mouth" transform="translate(8.000000, 20.000000)" fill="#1B215C"><path d="M9,6.20295876 C14.5228475,6.20295876 18,1.93945127 18,0.510399636 C18,-0.918651995 14.5228475,3.09792651 9,3.09792651 C3.4771525,3.09792651 0,-0.918651995 0,0.510399636 C0,1.93945127 3.4771525,6.20295876 9,6.20295876 Z" id="mouth"/></g><g id="circle" fill="#1B215C"><path d="M1.49461102,1.46173693 C0.945302524,1.48286904 0.475903005,1.95704137 0.461736917,2.49461104 C0.461736917,2.49461104 -1.00299467e-08,8.00000011 2.49999998,10.4999998 C2.49999998,10.4999998 7.50000002,5.5 9.50000001,3.50000001 C6.99999999,1.00000002 1.49461102,1.46173693 1.49461102,1.46173693 Z M4.5,7.5 C3.00000002,5.99999996 3.04242827,4.48629307 3.04242827,4.48629307 C3.01899579,4.21772082 3.22660638,4.01290267 3.49791209,4.04524294 C3.49791209,4.04524294 5,4 6.50000006,5.53953457 C6.16963542,6.01573659 4.5,7.5 4.5,7.5 Z" id="l"/><path d="M32.505389,1.46173692 C33.0546975,1.48286904 33.524097,1.95704135 33.5382631,2.49461102 C33.5382631,2.49461102 34,7.99999999 31.5,10.5 C31.5,10.5 26.4999995,5.49999998 24.4999995,3.49999999 C27,0.999999991 32.505389,1.46173692 32.505389,1.46173692 Z M29.5,7.50000004 C31,6 30.9575717,4.48629308 30.9575717,4.48629308 C30.9810042,4.21772083 30.7733936,4.01257133 30.5020879,4.04408112 C30.5020879,4.04408112 29,3.99999999 27.5,5.50000004 L29.5,7.50000004 Z" id="r"/><path d="M34,17 C34,7.61115925 26.3888407,0 17,0 C7.61115925,0 0,7.61115925 0,17 C0,26.3888407 7.61115925,34 17,34 C26.3888407,34 34,26.3888407 34,17 Z M3,17 C3,9.2680135 9.2680135,3 17,3 C24.7319865,3 31,9.2680135 31,17 C31,24.7319865 24.7319865,31 17,31 C9.2680135,31 3,24.7319865 3,17 Z" id="c"/></g></g></g></svg>
